<svg width="1414" height="1063" viewBox="0 0 1414 1063" fill="none" xmlns="http://www.w3.org/2000/svg">
<rect width="1414" height="1063" rx="23" fill="white"/>
<rect x="312" y="84" width="778" height="458" rx="6" stroke="#B8B8B8" stroke-width="8"/>
<path d="M369.5 427L520.657 231.216C524.121 226.729 530.619 226.016 534.974 229.645L687.049 356.374C690.064 358.886 694.269 359.403 697.803 357.695L866.116 276.344C869.691 274.616 873.949 275.167 876.967 277.747L1051.5 427" stroke="#B8B8B8" stroke-width="8"/>
<circle cx="923.5" cy="171.5" r="47.5" stroke="#B8B8B8" stroke-width="8"/>
<g filter="url(#filter0_d_757_3)">
<line x1="758.075" y1="652.272" x2="1186.07" y2="193.272" stroke="#B8B8B8" stroke-width="8"/>
</g>
<path d="M520.818 815.182H530.091L537.864 825.409L539.909 828.136L551.5 843.545H542.227L534.591 833.318L532.682 830.727L520.818 815.182ZM554.364 802.091C554.364 809.455 553.034 815.818 550.375 821.182C547.716 826.545 544.068 830.682 539.432 833.591C534.795 836.5 529.5 837.955 523.545 837.955C517.591 837.955 512.295 836.5 507.659 833.591C503.023 830.682 499.375 826.545 496.716 821.182C494.057 815.818 492.727 809.455 492.727 802.091C492.727 794.727 494.057 788.364 496.716 783C499.375 777.636 503.023 773.5 507.659 770.591C512.295 767.682 517.591 766.227 523.545 766.227C529.5 766.227 534.795 767.682 539.432 770.591C544.068 773.5 547.716 777.636 550.375 783C553.034 788.364 554.364 794.727 554.364 802.091ZM546.182 802.091C546.182 796.045 545.17 790.943 543.148 786.784C541.148 782.625 538.432 779.477 535 777.341C531.591 775.205 527.773 774.136 523.545 774.136C519.318 774.136 515.489 775.205 512.057 777.341C508.648 779.477 505.932 782.625 503.909 786.784C501.909 790.943 500.909 796.045 500.909 802.091C500.909 808.136 501.909 813.239 503.909 817.398C505.932 821.557 508.648 824.705 512.057 826.841C515.489 828.977 519.318 830.045 523.545 830.045C527.773 830.045 531.591 828.977 535 826.841C538.432 824.705 541.148 821.557 543.148 817.398C545.17 813.239 546.182 808.136 546.182 802.091ZM568.58 837V767.182H592.17C597.625 767.182 602.102 768.114 605.602 769.977C609.102 771.818 611.693 774.352 613.375 777.58C615.057 780.807 615.898 784.477 615.898 788.591C615.898 792.705 615.057 796.352 613.375 799.534C611.693 802.716 609.114 805.216 605.636 807.034C602.159 808.83 597.716 809.727 592.307 809.727H573.216V802.091H592.034C595.761 802.091 598.761 801.545 601.034 800.455C603.33 799.364 604.989 797.818 606.011 795.818C607.057 793.795 607.58 791.386 607.58 788.591C607.58 785.795 607.057 783.352 606.011 781.261C604.966 779.17 603.295 777.557 601 776.42C598.705 775.261 595.67 774.682 591.898 774.682H577.034V837H568.58ZM601.443 805.636L618.625 837H608.807L591.898 805.636H601.443ZM665.44 767.182V837H656.986V767.182H665.44ZM681.301 837V784.636H689.074V792.818H689.756C690.847 790.023 692.608 787.852 695.04 786.307C697.472 784.739 700.392 783.955 703.801 783.955C707.256 783.955 710.131 784.739 712.426 786.307C714.744 787.852 716.551 790.023 717.847 792.818H718.392C719.733 790.114 721.744 787.966 724.426 786.375C727.108 784.761 730.324 783.955 734.074 783.955C738.756 783.955 742.585 785.42 745.562 788.352C748.54 791.261 750.028 795.795 750.028 801.955V837H741.983V801.955C741.983 798.091 740.926 795.33 738.812 793.67C736.699 792.011 734.21 791.182 731.347 791.182C727.665 791.182 724.813 792.295 722.79 794.523C720.767 796.727 719.756 799.523 719.756 802.909V837H711.574V801.136C711.574 798.159 710.608 795.761 708.676 793.943C706.744 792.102 704.256 791.182 701.21 791.182C699.119 791.182 697.165 791.739 695.347 792.852C693.551 793.966 692.097 795.511 690.983 797.489C689.892 799.443 689.347 801.705 689.347 804.273V837H681.301ZM780.148 838.227C776.83 838.227 773.818 837.602 771.114 836.352C768.409 835.08 766.261 833.25 764.67 830.864C763.08 828.455 762.284 825.545 762.284 822.136C762.284 819.136 762.875 816.705 764.057 814.841C765.239 812.955 766.818 811.477 768.795 810.409C770.773 809.341 772.955 808.545 775.341 808.023C777.75 807.477 780.17 807.045 782.602 806.727C785.784 806.318 788.364 806.011 790.341 805.807C792.341 805.58 793.795 805.205 794.705 804.682C795.636 804.159 796.102 803.25 796.102 801.955V801.682C796.102 798.318 795.182 795.705 793.341 793.841C791.523 791.977 788.761 791.045 785.057 791.045C781.216 791.045 778.205 791.886 776.023 793.568C773.841 795.25 772.307 797.045 771.42 798.955L763.784 796.227C765.148 793.045 766.966 790.568 769.239 788.795C771.534 787 774.034 785.75 776.739 785.045C779.466 784.318 782.148 783.955 784.784 783.955C786.466 783.955 788.398 784.159 790.58 784.568C792.784 784.955 794.909 785.761 796.955 786.989C799.023 788.216 800.739 790.068 802.102 792.545C803.466 795.023 804.148 798.341 804.148 802.5V837H796.102V829.909H795.693C795.148 831.045 794.239 832.261 792.966 833.557C791.693 834.852 790 835.955 787.886 836.864C785.773 837.773 783.193 838.227 780.148 838.227ZM781.375 831C784.557 831 787.239 830.375 789.42 829.125C791.625 827.875 793.284 826.261 794.398 824.284C795.534 822.307 796.102 820.227 796.102 818.045V810.682C795.761 811.091 795.011 811.466 793.852 811.807C792.716 812.125 791.398 812.409 789.898 812.659C788.42 812.886 786.977 813.091 785.568 813.273C784.182 813.432 783.057 813.568 782.193 813.682C780.102 813.955 778.148 814.398 776.33 815.011C774.534 815.602 773.08 816.5 771.966 817.705C770.875 818.886 770.33 820.5 770.33 822.545C770.33 825.341 771.364 827.455 773.432 828.886C775.523 830.295 778.17 831 781.375 831ZM839.969 857.727C836.082 857.727 832.741 857.227 829.946 856.227C827.151 855.25 824.821 853.955 822.957 852.341C821.116 850.75 819.651 849.045 818.56 847.227L824.969 842.727C825.696 843.682 826.616 844.773 827.73 846C828.844 847.25 830.366 848.33 832.298 849.239C834.253 850.17 836.81 850.636 839.969 850.636C844.196 850.636 847.685 849.614 850.435 847.568C853.185 845.523 854.56 842.318 854.56 837.955V827.318H853.878C853.287 828.273 852.446 829.455 851.355 830.864C850.287 832.25 848.741 833.489 846.719 834.58C844.719 835.648 842.014 836.182 838.605 836.182C834.378 836.182 830.582 835.182 827.219 833.182C823.878 831.182 821.23 828.273 819.276 824.455C817.344 820.636 816.378 816 816.378 810.545C816.378 805.182 817.321 800.511 819.207 796.534C821.094 792.534 823.719 789.443 827.082 787.261C830.446 785.057 834.332 783.955 838.741 783.955C842.151 783.955 844.855 784.523 846.855 785.659C848.878 786.773 850.423 788.045 851.491 789.477C852.582 790.886 853.423 792.045 854.014 792.955H854.832V784.636H862.605V838.5C862.605 843 861.582 846.659 859.537 849.477C857.514 852.318 854.787 854.398 851.355 855.716C847.946 857.057 844.151 857.727 839.969 857.727ZM839.696 828.955C842.923 828.955 845.651 828.216 847.878 826.739C850.105 825.261 851.798 823.136 852.957 820.364C854.116 817.591 854.696 814.273 854.696 810.409C854.696 806.636 854.128 803.307 852.991 800.42C851.855 797.534 850.173 795.273 847.946 793.636C845.719 792 842.969 791.182 839.696 791.182C836.287 791.182 833.446 792.045 831.173 793.773C828.923 795.5 827.23 797.818 826.094 800.727C824.98 803.636 824.423 806.864 824.423 810.409C824.423 814.045 824.991 817.261 826.128 820.057C827.287 822.83 828.991 825.011 831.241 826.602C833.514 828.17 836.332 828.955 839.696 828.955ZM899.287 838.091C894.241 838.091 889.889 836.977 886.23 834.75C882.594 832.5 879.787 829.364 877.81 825.341C875.855 821.295 874.878 816.591 874.878 811.227C874.878 805.864 875.855 801.136 877.81 797.045C879.787 792.932 882.537 789.727 886.06 787.432C889.605 785.114 893.741 783.955 898.469 783.955C901.196 783.955 903.889 784.409 906.548 785.318C909.207 786.227 911.628 787.705 913.81 789.75C915.991 791.773 917.73 794.455 919.026 797.795C920.321 801.136 920.969 805.25 920.969 810.136V813.545H880.605V806.591H912.787C912.787 803.636 912.196 801 911.014 798.682C909.855 796.364 908.196 794.534 906.037 793.193C903.901 791.852 901.378 791.182 898.469 791.182C895.264 791.182 892.491 791.977 890.151 793.568C887.832 795.136 886.048 797.182 884.798 799.705C883.548 802.227 882.923 804.932 882.923 807.818V812.455C882.923 816.409 883.605 819.761 884.969 822.511C886.355 825.239 888.276 827.318 890.73 828.75C893.185 830.159 896.037 830.864 899.287 830.864C901.401 830.864 903.31 830.568 905.014 829.977C906.741 829.364 908.23 828.455 909.48 827.25C910.73 826.023 911.696 824.5 912.378 822.682L920.151 824.864C919.332 827.5 917.957 829.818 916.026 831.818C914.094 833.795 911.707 835.341 908.866 836.455C906.026 837.545 902.832 838.091 899.287 838.091Z" fill="black"/>
<path d="M231.523 952V922.909H241.352C243.634 922.909 245.5 923.321 246.949 924.145C248.407 924.959 249.487 926.062 250.188 927.455C250.888 928.847 251.239 930.4 251.239 932.114C251.239 933.828 250.888 935.385 250.188 936.787C249.496 938.188 248.426 939.306 246.977 940.139C245.528 940.963 243.672 941.375 241.409 941.375H234.364V938.25H241.295C242.858 938.25 244.113 937.98 245.06 937.44C246.007 936.901 246.693 936.171 247.119 935.253C247.555 934.325 247.773 933.278 247.773 932.114C247.773 930.949 247.555 929.907 247.119 928.989C246.693 928.07 246.002 927.35 245.045 926.83C244.089 926.299 242.82 926.034 241.239 926.034H235.045V952H231.523ZM259.811 922.909V952H256.459V922.909H259.811ZM275.099 952.455C272.996 952.455 271.183 951.991 269.658 951.062C268.143 950.125 266.974 948.818 266.15 947.142C265.335 945.456 264.928 943.496 264.928 941.261C264.928 939.027 265.335 937.057 266.15 935.352C266.974 933.638 268.12 932.303 269.587 931.347C271.065 930.381 272.788 929.898 274.758 929.898C275.894 929.898 277.016 930.087 278.124 930.466C279.232 930.845 280.241 931.46 281.15 932.312C282.059 933.155 282.783 934.273 283.323 935.665C283.863 937.057 284.133 938.771 284.133 940.807V942.227H267.315V939.33H280.724C280.724 938.098 280.478 937 279.985 936.034C279.502 935.068 278.811 934.306 277.911 933.747C277.021 933.188 275.97 932.909 274.758 932.909C273.423 932.909 272.267 933.241 271.292 933.903C270.326 934.557 269.583 935.409 269.062 936.46C268.541 937.511 268.281 938.638 268.281 939.841V941.773C268.281 943.42 268.565 944.817 269.133 945.963C269.71 947.099 270.511 947.966 271.533 948.562C272.556 949.15 273.745 949.443 275.099 949.443C275.979 949.443 276.775 949.32 277.485 949.074C278.205 948.818 278.825 948.439 279.346 947.938C279.867 947.426 280.269 946.792 280.553 946.034L283.792 946.943C283.451 948.042 282.878 949.008 282.073 949.841C281.268 950.665 280.274 951.309 279.09 951.773C277.906 952.227 276.576 952.455 275.099 952.455ZM295.653 952.511C294.27 952.511 293.015 952.251 291.888 951.73C290.762 951.2 289.867 950.438 289.204 949.443C288.541 948.439 288.21 947.227 288.21 945.807C288.21 944.557 288.456 943.544 288.948 942.767C289.441 941.981 290.099 941.366 290.923 940.92C291.746 940.475 292.656 940.144 293.65 939.926C294.654 939.699 295.662 939.519 296.675 939.386C298.001 939.216 299.076 939.088 299.9 939.003C300.733 938.908 301.339 938.752 301.718 938.534C302.106 938.316 302.3 937.937 302.3 937.398V937.284C302.3 935.883 301.917 934.794 301.15 934.017C300.392 933.241 299.242 932.852 297.698 932.852C296.098 932.852 294.843 933.203 293.934 933.903C293.025 934.604 292.386 935.352 292.016 936.148L288.835 935.011C289.403 933.686 290.16 932.653 291.107 931.915C292.064 931.167 293.105 930.646 294.232 930.352C295.369 930.049 296.486 929.898 297.585 929.898C298.285 929.898 299.09 929.983 299.999 930.153C300.918 930.314 301.803 930.651 302.656 931.162C303.517 931.673 304.232 932.445 304.8 933.477C305.369 934.509 305.653 935.892 305.653 937.625V952H302.3V949.045H302.13C301.903 949.519 301.524 950.026 300.994 950.565C300.463 951.105 299.758 951.564 298.877 951.943C297.996 952.322 296.922 952.511 295.653 952.511ZM296.164 949.5C297.49 949.5 298.607 949.24 299.516 948.719C300.435 948.198 301.126 947.526 301.59 946.702C302.064 945.878 302.3 945.011 302.3 944.102V941.034C302.158 941.205 301.846 941.361 301.363 941.503C300.889 941.635 300.34 941.754 299.715 941.858C299.1 941.953 298.498 942.038 297.911 942.114C297.334 942.18 296.865 942.237 296.505 942.284C295.634 942.398 294.819 942.582 294.062 942.838C293.314 943.084 292.708 943.458 292.244 943.96C291.789 944.453 291.562 945.125 291.562 945.977C291.562 947.142 291.993 948.023 292.854 948.619C293.726 949.206 294.829 949.5 296.164 949.5ZM327.226 935.068L324.214 935.92C324.025 935.419 323.746 934.931 323.376 934.457C323.017 933.974 322.524 933.577 321.899 933.264C321.274 932.952 320.474 932.795 319.499 932.795C318.163 932.795 317.051 933.103 316.161 933.719C315.28 934.325 314.839 935.097 314.839 936.034C314.839 936.867 315.143 937.526 315.749 938.009C316.355 938.491 317.302 938.894 318.589 939.216L321.828 940.011C323.779 940.485 325.232 941.209 326.189 942.185C327.145 943.151 327.624 944.396 327.624 945.92C327.624 947.17 327.264 948.288 326.544 949.273C325.834 950.258 324.839 951.034 323.561 951.602C322.283 952.17 320.796 952.455 319.101 952.455C316.875 952.455 315.034 951.972 313.575 951.006C312.117 950.04 311.194 948.629 310.805 946.773L313.987 945.977C314.29 947.152 314.863 948.032 315.706 948.619C316.558 949.206 317.671 949.5 319.044 949.5C320.607 949.5 321.847 949.169 322.766 948.506C323.694 947.833 324.158 947.028 324.158 946.091C324.158 945.333 323.893 944.699 323.362 944.188C322.832 943.667 322.018 943.278 320.919 943.023L317.283 942.17C315.285 941.697 313.817 940.963 312.879 939.969C311.951 938.965 311.487 937.71 311.487 936.205C311.487 934.973 311.833 933.884 312.524 932.938C313.225 931.991 314.177 931.247 315.379 930.707C316.591 930.168 317.964 929.898 319.499 929.898C321.658 929.898 323.353 930.371 324.584 931.318C325.824 932.265 326.705 933.515 327.226 935.068ZM341.817 952.455C339.715 952.455 337.902 951.991 336.377 951.062C334.862 950.125 333.692 948.818 332.869 947.142C332.054 945.456 331.647 943.496 331.647 941.261C331.647 939.027 332.054 937.057 332.869 935.352C333.692 933.638 334.838 932.303 336.306 931.347C337.783 930.381 339.507 929.898 341.477 929.898C342.613 929.898 343.735 930.087 344.843 930.466C345.951 930.845 346.96 931.46 347.869 932.312C348.778 933.155 349.502 934.273 350.042 935.665C350.582 937.057 350.852 938.771 350.852 940.807V942.227H334.033V939.33H347.442C347.442 938.098 347.196 937 346.704 936.034C346.221 935.068 345.53 934.306 344.63 933.747C343.74 933.188 342.689 932.909 341.477 932.909C340.141 932.909 338.986 933.241 338.011 933.903C337.045 934.557 336.301 935.409 335.781 936.46C335.26 937.511 334.999 938.638 334.999 939.841V941.773C334.999 943.42 335.283 944.817 335.852 945.963C336.429 947.099 337.229 947.966 338.252 948.562C339.275 949.15 340.463 949.443 341.817 949.443C342.698 949.443 343.494 949.32 344.204 949.074C344.924 948.818 345.544 948.439 346.065 947.938C346.585 947.426 346.988 946.792 347.272 946.034L350.511 946.943C350.17 948.042 349.597 949.008 348.792 949.841C347.987 950.665 346.993 951.309 345.809 951.773C344.625 952.227 343.295 952.455 341.817 952.455ZM367.201 952V930.182H370.553V952H367.201ZM368.906 926.545C368.252 926.545 367.689 926.323 367.215 925.878C366.751 925.433 366.519 924.898 366.519 924.273C366.519 923.648 366.751 923.113 367.215 922.668C367.689 922.223 368.252 922 368.906 922C369.559 922 370.118 922.223 370.582 922.668C371.055 923.113 371.292 923.648 371.292 924.273C371.292 924.898 371.055 925.433 370.582 925.878C370.118 926.323 369.559 926.545 368.906 926.545ZM380.045 938.875V952H376.693V930.182H379.932V933.591H380.216C380.727 932.483 381.504 931.593 382.545 930.92C383.587 930.239 384.932 929.898 386.58 929.898C388.057 929.898 389.349 930.201 390.457 930.807C391.565 931.403 392.427 932.312 393.043 933.534C393.658 934.746 393.966 936.28 393.966 938.136V952H390.614V938.364C390.614 936.65 390.169 935.314 389.278 934.358C388.388 933.392 387.167 932.909 385.614 932.909C384.544 932.909 383.587 933.141 382.744 933.605C381.911 934.069 381.253 934.746 380.77 935.636C380.287 936.527 380.045 937.606 380.045 938.875ZM400.092 960.182V930.182H403.33V933.648H403.728C403.974 933.269 404.315 932.786 404.751 932.199C405.196 931.602 405.83 931.072 406.654 930.608C407.487 930.134 408.614 929.898 410.035 929.898C411.872 929.898 413.491 930.357 414.893 931.276C416.294 932.194 417.388 933.496 418.174 935.182C418.96 936.867 419.353 938.856 419.353 941.148C419.353 943.458 418.96 945.461 418.174 947.156C417.388 948.842 416.299 950.149 414.907 951.077C413.515 951.995 411.91 952.455 410.092 952.455C408.69 952.455 407.568 952.223 406.725 951.759C405.882 951.285 405.234 950.75 404.779 950.153C404.325 949.547 403.974 949.045 403.728 948.648H403.444V960.182H400.092ZM403.387 941.091C403.387 942.739 403.629 944.192 404.112 945.452C404.594 946.702 405.3 947.682 406.228 948.392C407.156 949.093 408.292 949.443 409.637 949.443C411.039 949.443 412.208 949.074 413.146 948.335C414.093 947.587 414.803 946.583 415.276 945.324C415.759 944.055 416.001 942.644 416.001 941.091C416.001 939.557 415.764 938.174 415.29 936.943C414.826 935.703 414.121 934.723 413.174 934.003C412.237 933.274 411.058 932.909 409.637 932.909C408.273 932.909 407.128 933.255 406.2 933.946C405.272 934.628 404.571 935.584 404.097 936.815C403.624 938.037 403.387 939.462 403.387 941.091ZM438.217 943.08V930.182H441.569V952H438.217V948.307H437.989C437.478 949.415 436.683 950.357 435.603 951.134C434.523 951.901 433.16 952.284 431.512 952.284C430.148 952.284 428.936 951.986 427.876 951.389C426.815 950.783 425.982 949.874 425.376 948.662C424.77 947.44 424.467 945.902 424.467 944.045V930.182H427.819V943.818C427.819 945.409 428.264 946.678 429.154 947.625C430.054 948.572 431.2 949.045 432.592 949.045C433.425 949.045 434.272 948.832 435.134 948.406C436.005 947.98 436.735 947.327 437.322 946.446C437.918 945.565 438.217 944.443 438.217 943.08ZM457.197 930.182V933.023H445.891V930.182H457.197ZM449.186 924.955H452.538V945.75C452.538 946.697 452.676 947.407 452.95 947.881C453.234 948.345 453.594 948.657 454.03 948.818C454.475 948.97 454.944 949.045 455.436 949.045C455.805 949.045 456.108 949.027 456.345 948.989C456.582 948.941 456.771 948.903 456.913 948.875L457.595 951.886C457.368 951.972 457.051 952.057 456.643 952.142C456.236 952.237 455.72 952.284 455.095 952.284C454.148 952.284 453.22 952.08 452.311 951.673C451.411 951.266 450.663 950.646 450.067 949.812C449.48 948.979 449.186 947.928 449.186 946.659V924.955ZM487.24 943.08V930.182H490.592V952H487.24V948.307H487.013C486.501 949.415 485.706 950.357 484.626 951.134C483.547 951.901 482.183 952.284 480.536 952.284C479.172 952.284 477.96 951.986 476.899 951.389C475.839 950.783 475.005 949.874 474.399 948.662C473.793 947.44 473.49 945.902 473.49 944.045V930.182H476.842V943.818C476.842 945.409 477.287 946.678 478.178 947.625C479.077 948.572 480.223 949.045 481.615 949.045C482.448 949.045 483.296 948.832 484.158 948.406C485.029 947.98 485.758 947.327 486.345 946.446C486.942 945.565 487.24 944.443 487.24 943.08ZM496.732 952V930.182H499.971V933.477H500.198C500.596 932.398 501.316 931.522 502.357 930.849C503.399 930.177 504.573 929.841 505.88 929.841C506.126 929.841 506.434 929.846 506.803 929.855C507.173 929.865 507.452 929.879 507.641 929.898V933.307C507.528 933.278 507.267 933.236 506.86 933.179C506.462 933.113 506.041 933.08 505.596 933.08C504.535 933.08 503.588 933.302 502.755 933.747C501.931 934.183 501.278 934.789 500.795 935.565C500.321 936.332 500.085 937.208 500.085 938.193V952H496.732ZM514.967 922.909V952H511.615V922.909H514.967ZM537.3 952L530.653 930.182H534.175L538.891 946.886H539.119L543.778 930.182H547.357L551.96 946.83H552.187L556.903 930.182H560.425L553.778 952H550.482L545.71 935.239H545.369L540.596 952H537.3ZM568.21 938.875V952H564.857V922.909H568.21V933.591H568.494C569.005 932.464 569.772 931.569 570.795 930.906C571.827 930.234 573.2 929.898 574.914 929.898C576.401 929.898 577.703 930.196 578.82 930.793C579.938 931.38 580.804 932.284 581.42 933.506C582.045 934.718 582.357 936.261 582.357 938.136V952H579.005V938.364C579.005 936.631 578.555 935.291 577.656 934.344C576.765 933.387 575.53 932.909 573.948 932.909C572.85 932.909 571.865 933.141 570.994 933.605C570.132 934.069 569.45 934.746 568.948 935.636C568.456 936.527 568.21 937.606 568.21 938.875ZM588.49 952V930.182H591.842V952H588.49ZM590.195 926.545C589.541 926.545 588.978 926.323 588.504 925.878C588.04 925.433 587.808 924.898 587.808 924.273C587.808 923.648 588.04 923.113 588.504 922.668C588.978 922.223 589.541 922 590.195 922C590.848 922 591.407 922.223 591.871 922.668C592.344 923.113 592.581 923.648 592.581 924.273C592.581 924.898 592.344 925.433 591.871 925.878C591.407 926.323 590.848 926.545 590.195 926.545ZM606.846 952.455C604.8 952.455 603.039 951.972 601.562 951.006C600.085 950.04 598.948 948.709 598.153 947.014C597.357 945.319 596.96 943.383 596.96 941.205C596.96 938.989 597.367 937.033 598.181 935.338C599.005 933.634 600.151 932.303 601.619 931.347C603.096 930.381 604.819 929.898 606.789 929.898C608.323 929.898 609.706 930.182 610.937 930.75C612.168 931.318 613.176 932.114 613.962 933.136C614.748 934.159 615.236 935.352 615.425 936.716H612.073C611.817 935.722 611.249 934.841 610.369 934.074C609.497 933.297 608.323 932.909 606.846 932.909C605.539 932.909 604.393 933.25 603.408 933.932C602.433 934.604 601.671 935.556 601.121 936.787C600.582 938.009 600.312 939.443 600.312 941.091C600.312 942.777 600.577 944.244 601.107 945.494C601.647 946.744 602.405 947.715 603.38 948.406C604.365 949.098 605.52 949.443 606.846 949.443C607.717 949.443 608.508 949.292 609.218 948.989C609.928 948.686 610.53 948.25 611.022 947.682C611.514 947.114 611.865 946.432 612.073 945.636H615.425C615.236 946.924 614.767 948.084 614.019 949.116C613.281 950.139 612.3 950.954 611.079 951.56C609.867 952.156 608.456 952.455 606.846 952.455ZM623.678 938.875V952H620.326V922.909H623.678V933.591H623.962C624.474 932.464 625.241 931.569 626.263 930.906C627.296 930.234 628.669 929.898 630.383 929.898C631.87 929.898 633.172 930.196 634.289 930.793C635.406 931.38 636.273 932.284 636.888 933.506C637.513 934.718 637.826 936.261 637.826 938.136V952H634.474V938.364C634.474 936.631 634.024 935.291 633.124 934.344C632.234 933.387 630.998 932.909 629.417 932.909C628.318 932.909 627.334 933.141 626.462 933.605C625.601 934.069 624.919 934.746 624.417 935.636C623.924 936.527 623.678 937.606 623.678 938.875ZM657.368 960.182C656.8 960.182 656.293 960.134 655.848 960.04C655.403 959.955 655.095 959.869 654.925 959.784L655.777 956.83C656.591 957.038 657.311 957.114 657.936 957.057C658.561 957 659.115 956.721 659.598 956.219C660.09 955.726 660.54 954.926 660.947 953.818L661.572 952.114L653.504 930.182H657.141L663.163 947.568H663.391L669.413 930.182H673.05L663.788 955.182C663.372 956.309 662.856 957.241 662.24 957.98C661.625 958.728 660.91 959.282 660.095 959.642C659.29 960.002 658.381 960.182 657.368 960.182ZM685.557 952.455C683.587 952.455 681.859 951.986 680.372 951.048C678.895 950.111 677.74 948.799 676.906 947.114C676.082 945.428 675.67 943.458 675.67 941.205C675.67 938.932 676.082 936.948 676.906 935.253C677.74 933.558 678.895 932.241 680.372 931.304C681.859 930.366 683.587 929.898 685.557 929.898C687.527 929.898 689.25 930.366 690.727 931.304C692.214 932.241 693.369 933.558 694.193 935.253C695.027 936.948 695.443 938.932 695.443 941.205C695.443 943.458 695.027 945.428 694.193 947.114C693.369 948.799 692.214 950.111 690.727 951.048C689.25 951.986 687.527 952.455 685.557 952.455ZM685.557 949.443C687.053 949.443 688.284 949.06 689.25 948.293C690.216 947.526 690.931 946.517 691.395 945.267C691.859 944.017 692.091 942.663 692.091 941.205C692.091 939.746 691.859 938.387 691.395 937.128C690.931 935.868 690.216 934.85 689.25 934.074C688.284 933.297 687.053 932.909 685.557 932.909C684.061 932.909 682.83 933.297 681.864 934.074C680.898 934.85 680.183 935.868 679.719 937.128C679.255 938.387 679.023 939.746 679.023 941.205C679.023 942.663 679.255 944.017 679.719 945.267C680.183 946.517 680.898 947.526 681.864 948.293C682.83 949.06 684.061 949.443 685.557 949.443ZM714.31 943.08V930.182H717.663V952H714.31V948.307H714.083C713.572 949.415 712.776 950.357 711.697 951.134C710.617 951.901 709.254 952.284 707.606 952.284C706.242 952.284 705.03 951.986 703.969 951.389C702.909 950.783 702.076 949.874 701.469 948.662C700.863 947.44 700.56 945.902 700.56 944.045V930.182H703.913V943.818C703.913 945.409 704.358 946.678 705.248 947.625C706.147 948.572 707.293 949.045 708.685 949.045C709.519 949.045 710.366 948.832 711.228 948.406C712.099 947.98 712.828 947.327 713.415 946.446C714.012 945.565 714.31 944.443 714.31 943.08ZM739.996 952L733.348 930.182H736.871L741.587 946.886H741.814L746.473 930.182H750.053L754.655 946.83H754.882L759.598 930.182H763.121L756.473 952H753.178L748.405 935.239H748.064L743.291 952H739.996ZM773.973 952.511C772.59 952.511 771.336 952.251 770.209 951.73C769.082 951.2 768.187 950.438 767.524 949.443C766.861 948.439 766.53 947.227 766.53 945.807C766.53 944.557 766.776 943.544 767.268 942.767C767.761 941.981 768.419 941.366 769.243 940.92C770.067 940.475 770.976 940.144 771.97 939.926C772.974 939.699 773.982 939.519 774.996 939.386C776.321 939.216 777.396 939.088 778.22 939.003C779.054 938.908 779.66 938.752 780.038 938.534C780.427 938.316 780.621 937.937 780.621 937.398V937.284C780.621 935.883 780.237 934.794 779.47 934.017C778.713 933.241 777.562 932.852 776.018 932.852C774.418 932.852 773.163 933.203 772.254 933.903C771.345 934.604 770.706 935.352 770.337 936.148L767.155 935.011C767.723 933.686 768.481 932.653 769.428 931.915C770.384 931.167 771.426 930.646 772.553 930.352C773.689 930.049 774.806 929.898 775.905 929.898C776.606 929.898 777.411 929.983 778.32 930.153C779.238 930.314 780.124 930.651 780.976 931.162C781.838 931.673 782.553 932.445 783.121 933.477C783.689 934.509 783.973 935.892 783.973 937.625V952H780.621V949.045H780.45C780.223 949.519 779.844 950.026 779.314 950.565C778.784 951.105 778.078 951.564 777.197 951.943C776.317 952.322 775.242 952.511 773.973 952.511ZM774.484 949.5C775.81 949.5 776.928 949.24 777.837 948.719C778.755 948.198 779.446 947.526 779.911 946.702C780.384 945.878 780.621 945.011 780.621 944.102V941.034C780.479 941.205 780.166 941.361 779.683 941.503C779.21 941.635 778.661 941.754 778.036 941.858C777.42 941.953 776.819 942.038 776.232 942.114C775.654 942.18 775.185 942.237 774.825 942.284C773.954 942.398 773.14 942.582 772.382 942.838C771.634 943.084 771.028 943.458 770.564 943.96C770.109 944.453 769.882 945.125 769.882 945.977C769.882 947.142 770.313 948.023 771.175 948.619C772.046 949.206 773.149 949.5 774.484 949.5ZM793.444 938.875V952H790.092V930.182H793.33V933.591H793.614C794.126 932.483 794.902 931.593 795.944 930.92C796.986 930.239 798.33 929.898 799.978 929.898C801.455 929.898 802.748 930.201 803.856 930.807C804.964 931.403 805.826 932.312 806.441 933.534C807.057 934.746 807.364 936.28 807.364 938.136V952H804.012V938.364C804.012 936.65 803.567 935.314 802.677 934.358C801.787 933.392 800.565 932.909 799.012 932.909C797.942 932.909 796.986 933.141 796.143 933.605C795.309 934.069 794.651 934.746 794.168 935.636C793.685 936.527 793.444 937.606 793.444 938.875ZM822.979 930.182V933.023H811.672V930.182H822.979ZM814.967 924.955H818.32V945.75C818.32 946.697 818.457 947.407 818.732 947.881C819.016 948.345 819.375 948.657 819.811 948.818C820.256 948.97 820.725 949.045 821.217 949.045C821.587 949.045 821.89 949.027 822.126 948.989C822.363 948.941 822.553 948.903 822.695 948.875L823.376 951.886C823.149 951.972 822.832 952.057 822.425 952.142C822.018 952.237 821.501 952.284 820.876 952.284C819.929 952.284 819.001 952.08 818.092 951.673C817.193 951.266 816.445 950.646 815.848 949.812C815.261 948.979 814.967 947.928 814.967 946.659V924.955ZM848.76 930.182V933.023H837.453V930.182H848.76ZM840.749 924.955H844.101V945.75C844.101 946.697 844.238 947.407 844.513 947.881C844.797 948.345 845.157 948.657 845.592 948.818C846.037 948.97 846.506 949.045 846.999 949.045C847.368 949.045 847.671 949.027 847.908 948.989C848.144 948.941 848.334 948.903 848.476 948.875L849.158 951.886C848.93 951.972 848.613 952.057 848.206 952.142C847.799 952.237 847.283 952.284 846.658 952.284C845.711 952.284 844.783 952.08 843.874 951.673C842.974 951.266 842.226 950.646 841.629 949.812C841.042 948.979 840.749 947.928 840.749 946.659V924.955ZM862.432 952.455C860.462 952.455 858.734 951.986 857.247 951.048C855.77 950.111 854.615 948.799 853.781 947.114C852.957 945.428 852.545 943.458 852.545 941.205C852.545 938.932 852.957 936.948 853.781 935.253C854.615 933.558 855.77 932.241 857.247 931.304C858.734 930.366 860.462 929.898 862.432 929.898C864.402 929.898 866.125 930.366 867.602 931.304C869.089 932.241 870.244 933.558 871.068 935.253C871.902 936.948 872.318 938.932 872.318 941.205C872.318 943.458 871.902 945.428 871.068 947.114C870.244 948.799 869.089 950.111 867.602 951.048C866.125 951.986 864.402 952.455 862.432 952.455ZM862.432 949.443C863.928 949.443 865.159 949.06 866.125 948.293C867.091 947.526 867.806 946.517 868.27 945.267C868.734 944.017 868.966 942.663 868.966 941.205C868.966 939.746 868.734 938.387 868.27 937.128C867.806 935.868 867.091 934.85 866.125 934.074C865.159 933.297 863.928 932.909 862.432 932.909C860.936 932.909 859.705 933.297 858.739 934.074C857.773 934.85 857.058 935.868 856.594 937.128C856.13 938.387 855.898 939.746 855.898 941.205C855.898 942.663 856.13 944.017 856.594 945.267C857.058 946.517 857.773 947.526 858.739 948.293C859.705 949.06 860.936 949.443 862.432 949.443ZM897.549 952.455C895.504 952.455 893.742 951.972 892.265 951.006C890.788 950.04 889.651 948.709 888.856 947.014C888.06 945.319 887.663 943.383 887.663 941.205C887.663 938.989 888.07 937.033 888.884 935.338C889.708 933.634 890.854 932.303 892.322 931.347C893.799 930.381 895.522 929.898 897.492 929.898C899.026 929.898 900.409 930.182 901.64 930.75C902.871 931.318 903.879 932.114 904.665 933.136C905.451 934.159 905.939 935.352 906.129 936.716H902.776C902.521 935.722 901.952 934.841 901.072 934.074C900.201 933.297 899.026 932.909 897.549 932.909C896.242 932.909 895.096 933.25 894.112 933.932C893.136 934.604 892.374 935.556 891.825 936.787C891.285 938.009 891.015 939.443 891.015 941.091C891.015 942.777 891.28 944.244 891.81 945.494C892.35 946.744 893.108 947.715 894.083 948.406C895.068 949.098 896.223 949.443 897.549 949.443C898.42 949.443 899.211 949.292 899.921 948.989C900.631 948.686 901.233 948.25 901.725 947.682C902.218 947.114 902.568 946.432 902.776 945.636H906.129C905.939 946.924 905.47 948.084 904.722 949.116C903.984 950.139 903.004 950.954 901.782 951.56C900.57 952.156 899.159 952.455 897.549 952.455ZM911.029 952V930.182H914.268V933.477H914.495C914.893 932.398 915.612 931.522 916.654 930.849C917.696 930.177 918.87 929.841 920.177 929.841C920.423 929.841 920.731 929.846 921.1 929.855C921.469 929.865 921.749 929.879 921.938 929.898V933.307C921.825 933.278 921.564 933.236 921.157 933.179C920.759 933.113 920.338 933.08 919.893 933.08C918.832 933.08 917.885 933.302 917.052 933.747C916.228 934.183 915.575 934.789 915.092 935.565C914.618 936.332 914.381 937.208 914.381 938.193V952H911.029ZM934.396 952.455C932.293 952.455 930.48 951.991 928.955 951.062C927.44 950.125 926.271 948.818 925.447 947.142C924.632 945.456 924.225 943.496 924.225 941.261C924.225 939.027 924.632 937.057 925.447 935.352C926.271 933.638 927.416 932.303 928.884 931.347C930.362 930.381 932.085 929.898 934.055 929.898C935.191 929.898 936.313 930.087 937.421 930.466C938.529 930.845 939.538 931.46 940.447 932.312C941.356 933.155 942.08 934.273 942.62 935.665C943.16 937.057 943.43 938.771 943.43 940.807V942.227H926.612V939.33H940.021C940.021 938.098 939.774 937 939.282 936.034C938.799 935.068 938.108 934.306 937.208 933.747C936.318 933.188 935.267 932.909 934.055 932.909C932.719 932.909 931.564 933.241 930.589 933.903C929.623 934.557 928.879 935.409 928.359 936.46C927.838 937.511 927.577 938.638 927.577 939.841V941.773C927.577 943.42 927.862 944.817 928.43 945.963C929.007 947.099 929.808 947.966 930.83 948.562C931.853 949.15 933.041 949.443 934.396 949.443C935.276 949.443 936.072 949.32 936.782 949.074C937.502 948.818 938.122 948.439 938.643 947.938C939.164 947.426 939.566 946.792 939.85 946.034L943.089 946.943C942.748 948.042 942.175 949.008 941.37 949.841C940.565 950.665 939.571 951.309 938.387 951.773C937.203 952.227 935.873 952.455 934.396 952.455ZM954.95 952.511C953.567 952.511 952.312 952.251 951.185 951.73C950.058 951.2 949.164 950.438 948.501 949.443C947.838 948.439 947.506 947.227 947.506 945.807C947.506 944.557 947.753 943.544 948.245 942.767C948.737 941.981 949.396 941.366 950.219 940.92C951.043 940.475 951.952 940.144 952.947 939.926C953.951 939.699 954.959 939.519 955.972 939.386C957.298 939.216 958.373 939.088 959.197 939.003C960.03 938.908 960.636 938.752 961.015 938.534C961.403 938.316 961.597 937.937 961.597 937.398V937.284C961.597 935.883 961.214 934.794 960.447 934.017C959.689 933.241 958.539 932.852 956.995 932.852C955.395 932.852 954.14 933.203 953.231 933.903C952.322 934.604 951.683 935.352 951.313 936.148L948.131 935.011C948.7 933.686 949.457 932.653 950.404 931.915C951.361 931.167 952.402 930.646 953.529 930.352C954.665 930.049 955.783 929.898 956.881 929.898C957.582 929.898 958.387 929.983 959.296 930.153C960.215 930.314 961.1 930.651 961.952 931.162C962.814 931.673 963.529 932.445 964.097 933.477C964.665 934.509 964.95 935.892 964.95 937.625V952H961.597V949.045H961.427C961.2 949.519 960.821 950.026 960.29 950.565C959.76 951.105 959.055 951.564 958.174 951.943C957.293 952.322 956.219 952.511 954.95 952.511ZM955.461 949.5C956.787 949.5 957.904 949.24 958.813 948.719C959.732 948.198 960.423 947.526 960.887 946.702C961.361 945.878 961.597 945.011 961.597 944.102V941.034C961.455 941.205 961.143 941.361 960.66 941.503C960.186 941.635 959.637 941.754 959.012 941.858C958.397 941.953 957.795 942.038 957.208 942.114C956.63 942.18 956.162 942.237 955.802 942.284C954.931 942.398 954.116 942.582 953.359 942.838C952.611 943.084 952.004 943.458 951.54 943.96C951.086 944.453 950.859 945.125 950.859 945.977C950.859 947.142 951.29 948.023 952.151 948.619C953.022 949.206 954.126 949.5 955.461 949.5ZM980.557 930.182V933.023H969.25V930.182H980.557ZM972.545 924.955H975.898V945.75C975.898 946.697 976.035 947.407 976.31 947.881C976.594 948.345 976.954 948.657 977.389 948.818C977.834 948.97 978.303 949.045 978.795 949.045C979.165 949.045 979.468 949.027 979.705 948.989C979.941 948.941 980.131 948.903 980.273 948.875L980.955 951.886C980.727 951.972 980.41 952.057 980.003 952.142C979.596 952.237 979.08 952.284 978.455 952.284C977.508 952.284 976.58 952.08 975.67 951.673C974.771 951.266 974.023 950.646 973.426 949.812C972.839 948.979 972.545 947.928 972.545 946.659V924.955ZM994.513 952.455C992.411 952.455 990.597 951.991 989.072 951.062C987.557 950.125 986.388 948.818 985.564 947.142C984.75 945.456 984.342 943.496 984.342 941.261C984.342 939.027 984.75 937.057 985.564 935.352C986.388 933.638 987.534 932.303 989.001 931.347C990.479 930.381 992.202 929.898 994.172 929.898C995.308 929.898 996.43 930.087 997.538 930.466C998.646 930.845 999.655 931.46 1000.56 932.312C1001.47 933.155 1002.2 934.273 1002.74 935.665C1003.28 937.057 1003.55 938.771 1003.55 940.807V942.227H986.729V939.33H1000.14C1000.14 938.098 999.892 937 999.399 936.034C998.916 935.068 998.225 934.306 997.325 933.747C996.435 933.188 995.384 932.909 994.172 932.909C992.837 932.909 991.681 933.241 990.706 933.903C989.74 934.557 988.997 935.409 988.476 936.46C987.955 937.511 987.695 938.638 987.695 939.841V941.773C987.695 943.42 987.979 944.817 988.547 945.963C989.125 947.099 989.925 947.966 990.947 948.562C991.97 949.15 993.159 949.443 994.513 949.443C995.393 949.443 996.189 949.32 996.899 949.074C997.619 948.818 998.239 948.439 998.76 947.938C999.281 947.426 999.683 946.792 999.967 946.034L1003.21 946.943C1002.87 948.042 1002.29 949.008 1001.49 949.841C1000.68 950.665 999.688 951.309 998.504 951.773C997.321 952.227 995.99 952.455 994.513 952.455ZM1030.92 942.909H1034.78L1038.02 947.17L1038.87 948.307L1043.7 954.727H1039.84L1036.66 950.466L1035.86 949.386L1030.92 942.909ZM1044.9 937.455C1044.9 940.523 1044.34 943.174 1043.23 945.409C1042.13 947.644 1040.61 949.367 1038.67 950.58C1036.74 951.792 1034.54 952.398 1032.06 952.398C1029.57 952.398 1027.37 951.792 1025.44 950.58C1023.5 949.367 1021.98 947.644 1020.88 945.409C1019.77 943.174 1019.21 940.523 1019.21 937.455C1019.21 934.386 1019.77 931.735 1020.88 929.5C1021.98 927.265 1023.5 925.542 1025.44 924.33C1027.37 923.117 1029.57 922.511 1032.06 922.511C1034.54 922.511 1036.74 923.117 1038.67 924.33C1040.61 925.542 1042.13 927.265 1043.23 929.5C1044.34 931.735 1044.9 934.386 1044.9 937.455ZM1041.49 937.455C1041.49 934.936 1041.07 932.81 1040.22 931.077C1039.39 929.344 1038.26 928.032 1036.83 927.142C1035.41 926.252 1033.82 925.807 1032.06 925.807C1030.29 925.807 1028.7 926.252 1027.27 927.142C1025.85 928.032 1024.72 929.344 1023.87 931.077C1023.04 932.81 1022.62 934.936 1022.62 937.455C1022.62 939.973 1023.04 942.099 1023.87 943.832C1024.72 945.565 1025.85 946.877 1027.27 947.767C1028.7 948.657 1030.29 949.102 1032.06 949.102C1033.82 949.102 1035.41 948.657 1036.83 947.767C1038.26 946.877 1039.39 945.565 1040.22 943.832C1041.07 942.099 1041.49 939.973 1041.49 937.455ZM1050.82 952V922.909H1060.65C1062.92 922.909 1064.79 923.297 1066.25 924.074C1067.7 924.841 1068.78 925.897 1069.48 927.241C1070.19 928.586 1070.54 930.116 1070.54 931.83C1070.54 933.544 1070.19 935.063 1069.48 936.389C1068.78 937.715 1067.71 938.757 1066.26 939.514C1064.81 940.262 1062.96 940.636 1060.71 940.636H1052.75V937.455H1060.59C1062.15 937.455 1063.4 937.227 1064.34 936.773C1065.3 936.318 1065.99 935.674 1066.42 934.841C1066.85 933.998 1067.07 932.994 1067.07 931.83C1067.07 930.665 1066.85 929.647 1066.42 928.776C1065.98 927.904 1065.28 927.232 1064.33 926.759C1063.37 926.276 1062.11 926.034 1060.54 926.034H1054.34V952H1050.82ZM1064.51 938.932L1071.67 952H1067.58L1060.54 938.932H1064.51ZM1111.06 932H1107.54C1107.33 930.987 1106.97 930.097 1106.45 929.33C1105.94 928.562 1105.31 927.919 1104.57 927.398C1103.84 926.867 1103.03 926.47 1102.14 926.205C1101.25 925.939 1100.33 925.807 1099.36 925.807C1097.6 925.807 1096 926.252 1094.57 927.142C1093.15 928.032 1092.02 929.344 1091.18 931.077C1090.34 932.81 1089.93 934.936 1089.93 937.455C1089.93 939.973 1090.34 942.099 1091.18 943.832C1092.02 945.565 1093.15 946.877 1094.57 947.767C1096 948.657 1097.6 949.102 1099.36 949.102C1100.33 949.102 1101.25 948.97 1102.14 948.705C1103.03 948.439 1103.84 948.046 1104.57 947.526C1105.31 946.995 1105.94 946.347 1106.45 945.58C1106.97 944.803 1107.33 943.913 1107.54 942.909H1111.06C1110.8 944.396 1110.32 945.726 1109.62 946.901C1108.92 948.075 1108.04 949.074 1107 949.898C1105.96 950.712 1104.79 951.332 1103.49 951.759C1102.21 952.185 1100.83 952.398 1099.36 952.398C1096.88 952.398 1094.67 951.792 1092.74 950.58C1090.81 949.367 1089.29 947.644 1088.18 945.409C1087.07 943.174 1086.52 940.523 1086.52 937.455C1086.52 934.386 1087.07 931.735 1088.18 929.5C1089.29 927.265 1090.81 925.542 1092.74 924.33C1094.67 923.117 1096.88 922.511 1099.36 922.511C1100.83 922.511 1102.21 922.724 1103.49 923.151C1104.79 923.577 1105.96 924.202 1107 925.026C1108.04 925.84 1108.92 926.834 1109.62 928.009C1110.32 929.173 1110.8 930.504 1111.06 932ZM1125.17 952.455C1123.2 952.455 1121.47 951.986 1119.98 951.048C1118.5 950.111 1117.35 948.799 1116.52 947.114C1115.69 945.428 1115.28 943.458 1115.28 941.205C1115.28 938.932 1115.69 936.948 1116.52 935.253C1117.35 933.558 1118.5 932.241 1119.98 931.304C1121.47 930.366 1123.2 929.898 1125.17 929.898C1127.14 929.898 1128.86 930.366 1130.34 931.304C1131.82 932.241 1132.98 933.558 1133.8 935.253C1134.64 936.948 1135.05 938.932 1135.05 941.205C1135.05 943.458 1134.64 945.428 1133.8 947.114C1132.98 948.799 1131.82 950.111 1130.34 951.048C1128.86 951.986 1127.14 952.455 1125.17 952.455ZM1125.17 949.443C1126.66 949.443 1127.89 949.06 1128.86 948.293C1129.83 947.526 1130.54 946.517 1131 945.267C1131.47 944.017 1131.7 942.663 1131.7 941.205C1131.7 939.746 1131.47 938.387 1131 937.128C1130.54 935.868 1129.83 934.85 1128.86 934.074C1127.89 933.297 1126.66 932.909 1125.17 932.909C1123.67 932.909 1122.44 933.297 1121.47 934.074C1120.51 934.85 1119.79 935.868 1119.33 937.128C1118.86 938.387 1118.63 939.746 1118.63 941.205C1118.63 942.663 1118.86 944.017 1119.33 945.267C1119.79 946.517 1120.51 947.526 1121.47 948.293C1122.44 949.06 1123.67 949.443 1125.17 949.443ZM1148.41 952.455C1146.59 952.455 1144.99 951.995 1143.59 951.077C1142.2 950.149 1141.11 948.842 1140.33 947.156C1139.54 945.461 1139.15 943.458 1139.15 941.148C1139.15 938.856 1139.54 936.867 1140.33 935.182C1141.11 933.496 1142.21 932.194 1143.61 931.276C1145.01 930.357 1146.63 929.898 1148.47 929.898C1149.89 929.898 1151.01 930.134 1151.83 930.608C1152.67 931.072 1153.3 931.602 1153.74 932.199C1154.18 932.786 1154.53 933.269 1154.77 933.648H1155.06V922.909H1158.41V952H1155.17V948.648H1154.77C1154.53 949.045 1154.18 949.547 1153.72 950.153C1153.27 950.75 1152.62 951.285 1151.77 951.759C1150.93 952.223 1149.81 952.455 1148.41 952.455ZM1148.86 949.443C1150.21 949.443 1151.34 949.093 1152.27 948.392C1153.2 947.682 1153.91 946.702 1154.39 945.452C1154.87 944.192 1155.11 942.739 1155.11 941.091C1155.11 939.462 1154.88 938.037 1154.4 936.815C1153.93 935.584 1153.23 934.628 1152.3 933.946C1151.37 933.255 1150.23 932.909 1148.86 932.909C1147.44 932.909 1146.26 933.274 1145.31 934.003C1144.37 934.723 1143.67 935.703 1143.2 936.943C1142.73 938.174 1142.5 939.557 1142.5 941.091C1142.5 942.644 1142.74 944.055 1143.21 945.324C1143.69 946.583 1144.4 947.587 1145.34 948.335C1146.29 949.074 1147.46 949.443 1148.86 949.443ZM1174.16 952.455C1172.06 952.455 1170.25 951.991 1168.72 951.062C1167.21 950.125 1166.04 948.818 1165.21 947.142C1164.4 945.456 1163.99 943.496 1163.99 941.261C1163.99 939.027 1164.4 937.057 1165.21 935.352C1166.04 933.638 1167.18 932.303 1168.65 931.347C1170.13 930.381 1171.85 929.898 1173.82 929.898C1174.96 929.898 1176.08 930.087 1177.19 930.466C1178.29 930.845 1179.3 931.46 1180.21 932.312C1181.12 933.155 1181.85 934.273 1182.39 935.665C1182.93 937.057 1183.2 938.771 1183.2 940.807V942.227H1166.38V939.33H1179.79C1179.79 938.098 1179.54 937 1179.05 936.034C1178.56 935.068 1177.87 934.306 1176.97 933.747C1176.08 933.188 1175.03 932.909 1173.82 932.909C1172.49 932.909 1171.33 933.241 1170.35 933.903C1169.39 934.557 1168.65 935.409 1168.12 936.46C1167.6 937.511 1167.34 938.638 1167.34 939.841V941.773C1167.34 943.42 1167.63 944.817 1168.2 945.963C1168.77 947.099 1169.57 947.966 1170.6 948.562C1171.62 949.15 1172.81 949.443 1174.16 949.443C1175.04 949.443 1175.84 949.32 1176.55 949.074C1177.27 948.818 1177.89 948.439 1178.41 947.938C1178.93 947.426 1179.33 946.792 1179.62 946.034L1182.85 946.943C1182.51 948.042 1181.94 949.008 1181.14 949.841C1180.33 950.665 1179.34 951.309 1178.15 951.773C1176.97 952.227 1175.64 952.455 1174.16 952.455Z" fill="#676767"/>
<defs>
<filter id="filter0_d_757_3" x="741.149" y="190.544" width="447.851" height="468.456" filterUnits="userSpaceOnUse" color-interpolation-filters="sRGB">
<feFlood flood-opacity="0" result="BackgroundImageFix"/>
<feColorMatrix in="SourceAlpha" type="matrix" values="0 0 0 0 0 0 0 0 0 0 0 0 0 0 0 0 0 0 127 0" result="hardAlpha"/>
<feOffset dx="-14" dy="4"/>
<feComposite in2="hardAlpha" operator="out"/>
<feColorMatrix type="matrix" values="0 0 0 0 1 0 0 0 0 1 0 0 0 0 1 0 0 0 1 0"/>
<feBlend mode="normal" in2="BackgroundImageFix" result="effect1_dropShadow_757_3"/>
<feBlend mode="normal" in="SourceGraphic" in2="effect1_dropShadow_757_3" result="shape"/>
</filter>
</defs>
</svg>
